<svg width="1000" height="550" viewBox="0 0 1000 550" xmlns="http://www.w3.org/2000/svg">
    <defs>
        <marker id="arrow" markerWidth="10" markerHeight="7" refX="10" refY="3.5" orient="auto">
            <polygon points="0 0, 10 3.5, 0 7" fill="#333" />
        </marker>
    </defs>
    <rect width="1000" height="550" fill="#ffffff" />
    <text x="500" y="40" font-family="Arial" font-size="22" font-weight="bold" text-anchor="middle" fill="#333">Sequence: Login &amp; Sync Setup</text>

    <line x1="100" y1="80" x2="100" y2="500" stroke="#333" stroke-width="2" stroke-dasharray="5,5" />
    <line x1="260" y1="80" x2="260" y2="500" stroke="#333" stroke-width="2" stroke-dasharray="5,5" />
    <line x1="420" y1="80" x2="420" y2="500" stroke="#333" stroke-width="2" stroke-dasharray="5,5" />
    <line x1="600" y1="80" x2="600" y2="500" stroke="#333" stroke-width="2" stroke-dasharray="5,5" />
    <line x1="780" y1="80" x2="780" y2="500" stroke="#333" stroke-width="2" stroke-dasharray="5,5" />
    <line x1="920" y1="80" x2="920" y2="500" stroke="#333" stroke-width="2" stroke-dasharray="5,5" />

    <rect x="30" y="50" width="140" height="40" rx="5" fill="#e9ecef" stroke="#333" />
    <text x="100" y="75" font-family="Arial" font-size="11" font-weight="bold" text-anchor="middle">LoginScreen</text>
    <rect x="190" y="50" width="140" height="40" rx="5" fill="#e9ecef" stroke="#333" />
    <text x="260" y="75" font-family="Arial" font-size="11" font-weight="bold" text-anchor="middle">AuthManager</text>
    <rect x="350" y="50" width="140" height="40" rx="5" fill="#e9ecef" stroke="#333" />
    <text x="420" y="75" font-family="Arial" font-size="11" font-weight="bold" text-anchor="middle">AppConfig</text>
    <rect x="530" y="50" width="140" height="40" rx="5" fill="#d2232a" stroke="#333" />
    <text x="600" y="75" font-family="Arial" font-size="11" font-weight="bold" text-anchor="middle" fill="white">DatabaseManager</text>
    <rect x="710" y="50" width="140" height="40" rx="5" fill="#2c3e50" stroke="#333" />
    <text x="780" y="75" font-family="Arial" font-size="11" font-weight="bold" text-anchor="middle" fill="white">AppSyncManager</text>
    <rect x="850" y="50" width="140" height="40" rx="5" fill="#00a3e0" stroke="#333" />
    <text x="920" y="75" font-family="Arial" font-size="11" font-weight="bold" text-anchor="middle" fill="white">Engine</text>

    <path d="M100 140 L260 140" stroke="#333" stroke-width="2" marker-end="url(#arrow)" />
    <text x="180" y="135" font-family="Arial" font-size="10" text-anchor="middle">1. login(user, pass)</text>

    <path d="M260 180 L420 180" stroke="#333" stroke-width="2" marker-end="url(#arrow)" />
    <text x="340" y="175" font-family="Arial" font-size="10" text-anchor="middle">2. setStoreForUser()</text>

    <path d="M260 220 L600 220" stroke="#333" stroke-width="2" marker-end="url(#arrow)" />
    <text x="430" y="215" font-family="Arial" font-size="10" text-anchor="middle">3. startSyncAfterLogin()</text>

    <path d="M600 260 L920 260" stroke="#333" stroke-width="2" marker-end="url(#arrow)" />
    <text x="760" y="255" font-family="Arial" font-size="10" text-anchor="middle">4. Scoped Setup (Indexes/Collections)</text>

    <path d="M600 320 L780 320" stroke="#333" stroke-width="2" marker-end="url(#arrow)" />
    <text x="690" y="315" font-family="Arial" font-size="10" text-anchor="middle">5. setupAndStartSync()</text>

    <path d="M780 380 L920 380" stroke="#333" stroke-width="2" marker-end="url(#arrow)" />
    <text x="850" y="375" font-family="Arial" font-size="10" text-anchor="middle">6. Replicator(config)</text>

    <path d="M780 430 L920 430" stroke="#333" stroke-width="2" marker-end="url(#arrow)" />
    <text x="850" y="425" font-family="Arial" font-size="10" text-anchor="middle">7. replicator.start()</text>

    <path d="M920 480 L100 480" stroke="#333" stroke-width="2" stroke-dasharray="3,3" marker-end="url(#arrow)" />
    <text x="500" y="475" font-family="Arial" font-size="10" text-anchor="middle">Real-Time Sync Connection Active</text>
</svg>
